<mxfile host="app.diagrams.net" modified="2024-02-03T14:30:54.048Z" agent="Mozilla/5.0 (Macintosh; Intel Mac OS X 10.15; rv:122.0) Gecko/20100101 Firefox/122.0" version="23.1.1" etag="ma8uo-5_q4L0pJSqFYB4" type="github">
  <diagram name="Page-1" id="wpis969evRhUT2-YKQje">
    <mxGraphModel>
      <root>
        <mxCell id="0" />
        <mxCell id="1" parent="0" />
      </root>
    </mxGraphModel>
  </diagram>
</mxfile>
